<svg xmlns="http://www.w3.org/2000/svg" xmlns:xlink="http://www.w3.org/1999/xlink" width="15" height="10.51" viewBox="0 0 15 10.51">
  <defs>
    <clipPath id="clip-path">
      <path id="Path_5982" data-name="Path 5982" d="M91.089-9.5H85.256v-1.5h5.926a2.249,2.249,0,1,0,0-4.5c-1.053-5.219-8.73-3.039-7.254,1.825a1.5,1.5,0,0,0-2.4,1.482c.282,1.386,1.81,1.19,3.178,1.19h.544v1.5c-2.03,0-3.048.18-4.166-.731a2.934,2.934,0,0,1-.549-3.985,3.232,3.232,0,0,1,1.76-1.217A5.259,5.259,0,0,1,92.33-16.849c0-.01,0,.011.017.015A3.749,3.749,0,0,1,91.089-9.5Z" transform="translate(0 0)" fill="#56b6ca" clip-rule="evenodd"/>
    </clipPath>
    <clipPath id="clip-path-2">
      <path id="Path_5981" data-name="Path 5981" d="M-260,105H55V-240H-260Z" transform="translate(260 240)" fill="#56b6ca"/>
    </clipPath>
    <clipPath id="clip-path-3">
      <path id="Path_5986" data-name="Path 5986" d="M4.238-7.322,1.63-4.609h0L0-6.3l.652-.678L1.63-5.966,3.586-8Z" fill="#56b6ca" clip-rule="evenodd"/>
    </clipPath>
    <clipPath id="clip-path-4">
      <path id="Path_5985" data-name="Path 5985" d="M-265,79.633H-86.992V-234H-265Z" transform="translate(265 234)" fill="#56b6ca"/>
    </clipPath>
  </defs>
  <g id="cloud_downloaded" transform="translate(-1 -4)">
    <g id="Group_12205" data-name="Group 12205" transform="translate(-79 24)" clip-path="url(#clip-path)">
      <g id="Group_12204" data-name="Group 12204" transform="translate(-175 -185)" clip-path="url(#clip-path-2)">
        <path id="Path_5980" data-name="Path 5980" d="M75-2.5H97.5V-25H75Z" transform="translate(176.25 186.25)" fill="#56b6ca"/>
      </g>
    </g>
    <g id="Group_12207" data-name="Group 12207" transform="translate(7 16.305)" clip-path="url(#clip-path-3)">
      <g id="Group_12206" data-name="Group 12206" transform="translate(-112.314 -103.785)" clip-path="url(#clip-path-4)">
        <path id="Path_5984" data-name="Path 5984" d="M-5-5.371H3.477V-13H-5Z" transform="translate(115.195 106.666)" fill="#56b6ca"/>
      </g>
    </g>
  </g>
</svg>
