<svg xmlns="http://www.w3.org/2000/svg" xmlns:xlink="http://www.w3.org/1999/xlink" width="15" height="15" viewBox="0 0 15 15">
  <defs>
    <clipPath id="clip-path">
      <path id="Path_5972" data-name="Path 5972" d="M9.233-6.751a11.3,11.3,0,0,0,1.647-5h2.567a6.015,6.015,0,0,1-4.214,5M7.5-6.871a9.8,9.8,0,0,1-1.882-4.877H9.379A9.79,9.79,0,0,1,7.5-6.871M1.552-11.748H4.12a11.3,11.3,0,0,0,1.655,5,6.016,6.016,0,0,1-4.223-5m3.914-6.393A11.3,11.3,0,0,0,4.1-13.249H1.552a6.013,6.013,0,0,1,3.914-4.892M7.475-18.5l.02-.027.019.027A9.789,9.789,0,0,1,9.4-13.249H5.6A9.8,9.8,0,0,1,7.475-18.5m5.972,5.254H10.9a11.306,11.306,0,0,0-1.375-4.9,6.012,6.012,0,0,1,3.923,4.9M8.141-19.972A7.5,7.5,0,0,0,0-12.5,7.5,7.5,0,0,0,7.283-5,7.5,7.5,0,0,0,15-12.5a7.494,7.494,0,0,0-6.859-7.474" transform="translate(0 0)" fill="#56b6ca" clip-rule="evenodd"/>
    </clipPath>
    <clipPath id="clip-path-2">
      <path id="Path_5971" data-name="Path 5971" d="M-340,315H-25V-120H-340Z" transform="translate(340 120)" fill="#56b6ca"/>
    </clipPath>
  </defs>
  <g id="Discover_icon" transform="translate(0 20)" clip-path="url(#clip-path)">
    <g id="Group_12198" data-name="Group 12198" transform="translate(-255 -95)" clip-path="url(#clip-path-2)">
      <path id="Path_5970" data-name="Path 5970" d="M-5-2.5H17.5V-25H-5Z" transform="translate(256.25 96.25)" fill="#56b6ca"/>
    </g>
  </g>
</svg>
