<svg xmlns="http://www.w3.org/2000/svg" xmlns:xlink="http://www.w3.org/1999/xlink" width="20" height="20" viewBox="0 0 20 20">
  <defs>
    <clipPath id="clip-path">
      <path id="Path_5902" data-name="Path 5902" d="M91.012-3.832V-14.014h-2V-3.832L87.716-5.126,86.3-3.711,90.011,0l3.71-3.711L92.306-5.126Zm3.773-2.174H93.014v-2h1.9c4.26,0,3.954-6.138.006-6-1.4-6.959-11.641-4.052-9.672,2.433a2,2,0,0,0-3.2,1.976c.376,1.848,2.413,1.587,4.237,1.587h.726v2c-2.706,0-4.064.24-5.555-.975a3.912,3.912,0,0,1-.732-5.313,4.31,4.31,0,0,1,2.347-1.623A7.011,7.011,0,0,1,96.44-15.8c-.006-.013,0,.014.023.02,5.452,1.657,4.375,9.773-1.678,9.773Z" fill="#56b6ca" clip-rule="evenodd"/>
    </clipPath>
    <clipPath id="clip-path-2">
      <path id="Path_5901" data-name="Path 5901" d="M-260,220H160V-240H-260Z" fill="#56b6ca"/>
    </clipPath>
  </defs>
  <g id="download_icon" transform="translate(-80 20)" clip-path="url(#clip-path)">
    <g id="Group_12100" data-name="Group 12100" clip-path="url(#clip-path-2)">
      <path id="Path_5900" data-name="Path 5900" d="M75,5h30V-25H75Z" fill="#56b6ca"/>
    </g>
  </g>
</svg>
