<svg xmlns="http://www.w3.org/2000/svg" xmlns:xlink="http://www.w3.org/1999/xlink" width="11.325" height="6.229" viewBox="0 0 11.325 6.229">
  <defs>
    <clipPath id="clip-path">
      <path id="Path_7" data-name="Path 7" d="M.207-8.841h0a.6.6,0,0,0,.829,0L5.885-13.52a1.1,1.1,0,0,0,0-1.6L1-19.834a.6.6,0,0,0-.823-.006h0a.553.553,0,0,0-.006.806l4.47,4.313a.552.552,0,0,1,0,.8L.207-9.641a.551.551,0,0,0,0,.8" transform="translate(0)" fill="#414141" clip-rule="evenodd"/>
    </clipPath>
    <clipPath id="clip-path-2">
      <path id="Path_6" data-name="Path 6" d="M-265,133.724H-27.175V-240H-265Z" transform="translate(265 240)" fill="#414141"/>
    </clipPath>
  </defs>
  <g id="dropdown_arrow_icon" transform="translate(-8.675) rotate(90)" clip-path="url(#clip-path)">
    <g id="Group_8802" data-name="Group 8802" transform="translate(-150.056 -144.575)" clip-path="url(#clip-path-2)">
      <path id="Path_5" data-name="Path 5" d="M-5-8.013H6.891V-25H-5Z" transform="translate(152.225 146.744)" fill="#414141"/>
    </g>
  </g>
</svg>
