<svg xmlns="http://www.w3.org/2000/svg" width="15" height="15.002" viewBox="0 0 15 15.002">
  <g id="empty_checkbox" transform="translate(-177.003 -232)">
    <rect id="Rectangle_10110" data-name="Rectangle 10110" width="13" height="13" transform="translate(178 233)" fill="#fff"/>
    <path id="Subtraction_8" data-name="Subtraction 8" d="M7957.5,1261h-12a1.5,1.5,0,0,1-1.5-1.5v-12a1.5,1.5,0,0,1,1.5-1.5h12a1.5,1.5,0,0,1,1.5,1.5v12A1.5,1.5,0,0,1,7957.5,1261Zm-11.252-13.5a.75.75,0,0,0-.749.75v10.5a.75.75,0,0,0,.749.75h10.5a.751.751,0,0,0,.751-.75v-10.5a.751.751,0,0,0-.751-.75Z" transform="translate(-7766.998 -1014)" fill="#bebebe"/>
  </g>
</svg>
