<svg id="svg" xmlns="http://www.w3.org/2000/svg" xmlns:xlink="http://www.w3.org/1999/xlink" width="400" height="400" viewBox="0, 0, 400,400"><g id="svgg"><path id="path0" d="M195.100 51.619 C 193.498 52.940,192.188 54.627,192.188 55.369 C 192.188 56.112,191.866 57.053,191.473 57.461 C 191.079 57.869,190.349 63.652,189.848 70.313 C 189.348 76.973,188.635 83.125,188.264 83.984 C 187.893 84.844,187.171 91.172,186.660 98.047 C 186.149 104.922,185.470 110.898,185.152 111.328 C 184.834 111.758,184.133 117.910,183.594 125.000 C 183.055 132.090,182.356 138.242,182.041 138.672 C 181.726 139.102,181.025 145.430,180.483 152.734 C 179.942 160.039,179.234 166.367,178.911 166.797 C 178.588 167.227,177.883 173.379,177.344 180.469 C 176.805 187.559,176.102 193.711,175.781 194.141 C 175.461 194.570,174.758 200.723,174.219 207.813 C 173.680 214.902,172.981 221.055,172.666 221.484 C 172.351 221.914,171.650 228.242,171.108 235.547 C 170.567 242.852,169.857 249.180,169.531 249.609 C 169.206 250.039,168.477 256.367,167.911 263.672 L 166.884 276.953 165.571 269.141 C 164.850 264.844,164.026 257.813,163.740 253.516 C 163.455 249.219,162.878 244.121,162.458 242.188 C 161.682 238.616,160.257 225.616,158.092 202.344 C 157.432 195.254,156.590 188.750,156.220 187.891 C 155.851 187.031,155.128 180.527,154.614 173.438 C 154.101 166.348,153.419 160.195,153.100 159.766 C 152.781 159.336,152.102 153.359,151.592 146.484 C 151.082 139.609,150.363 133.281,149.994 132.422 C 149.625 131.563,148.912 125.634,148.411 119.246 C 147.186 103.665,144.962 100.000,136.732 100.000 C 126.944 100.000,125.927 102.167,122.248 130.859 C 121.587 136.016,120.723 141.289,120.328 142.578 C 119.933 143.867,119.220 148.789,118.742 153.516 C 118.265 158.242,117.590 162.646,117.243 163.303 C 116.895 163.959,116.163 168.881,115.617 174.240 C 115.071 179.600,114.365 184.336,114.049 184.766 C 113.733 185.195,113.035 189.766,112.498 194.922 C 111.962 200.078,111.250 204.825,110.915 205.471 C 110.581 206.117,109.880 210.863,109.358 216.018 C 108.835 221.173,108.141 225.742,107.816 226.172 C 107.490 226.602,106.806 231.172,106.294 236.328 C 105.783 241.484,105.060 246.406,104.687 247.266 C 104.315 248.125,103.749 250.938,103.430 253.516 L 102.850 258.203 101.580 250.000 C 100.881 245.488,100.088 241.270,99.818 240.625 C 99.547 239.980,98.926 236.289,98.438 232.422 C 97.949 228.555,97.334 224.863,97.069 224.219 C 96.805 223.574,95.973 219.531,95.220 215.234 C 94.466 210.938,93.145 203.555,92.283 198.828 C 91.422 194.102,90.000 186.278,89.125 181.443 C 88.249 176.608,86.815 168.697,85.938 163.865 C 85.061 159.032,83.821 151.914,83.182 148.047 C 81.361 137.033,78.197 132.817,71.559 132.560 C 67.790 132.414,62.745 134.717,62.052 136.899 C 61.811 137.659,61.325 138.281,60.973 138.281 C 60.621 138.281,59.895 140.654,59.361 143.555 C 58.826 146.455,58.133 149.180,57.822 149.609 C 57.510 150.039,56.820 152.676,56.289 155.469 C 55.757 158.262,55.054 160.898,54.726 161.328 C 54.398 161.758,53.701 164.355,53.177 167.100 C 52.652 169.844,51.922 172.657,51.554 173.350 C 51.186 174.042,50.477 176.895,49.979 179.688 C 49.480 182.480,48.804 185.117,48.476 185.547 C 48.148 185.977,47.444 188.613,46.911 191.406 C 46.377 194.199,45.712 196.836,45.431 197.266 C 45.151 197.695,44.385 200.684,43.728 203.906 L 42.535 209.766 26.346 209.977 C 16.441 210.106,10.156 210.485,10.156 210.953 C 10.156 211.374,9.643 211.719,9.015 211.719 C 5.135 211.719,2.792 222.435,5.977 225.620 C 9.051 228.694,10.607 228.906,30.028 228.906 C 54.057 228.906,56.618 227.917,58.630 217.858 C 59.091 215.556,59.780 212.969,60.162 212.109 C 60.544 211.250,61.264 208.438,61.763 205.859 C 62.261 203.281,62.932 200.820,63.254 200.391 C 63.575 199.961,64.273 197.324,64.805 194.531 C 65.337 191.738,66.034 189.102,66.355 188.672 C 66.676 188.242,67.383 185.315,67.926 182.167 C 69.198 174.794,70.383 176.534,71.860 187.946 C 72.412 192.212,73.122 196.055,73.438 196.484 C 73.753 196.914,74.456 200.781,75.000 205.078 C 75.544 209.375,76.247 213.242,76.563 213.672 C 76.878 214.102,77.581 217.969,78.125 222.266 C 78.669 226.563,79.372 230.430,79.688 230.859 C 80.003 231.289,80.706 235.156,81.250 239.453 C 81.794 243.750,82.497 247.617,82.813 248.047 C 83.128 248.477,83.831 252.344,84.375 256.641 C 84.919 260.938,85.622 264.805,85.938 265.234 C 86.253 265.664,86.956 269.531,87.500 273.828 C 88.044 278.125,88.744 281.992,89.055 282.422 C 89.367 282.852,90.042 286.543,90.555 290.625 C 91.068 294.707,91.796 298.750,92.172 299.609 C 92.549 300.469,93.069 302.469,93.330 304.054 C 95.232 315.637,113.245 313.387,114.594 301.399 C 114.849 299.126,115.321 296.914,115.642 296.484 C 115.963 296.055,116.668 291.309,117.207 285.938 C 117.747 280.566,118.448 275.820,118.764 275.391 C 119.080 274.961,119.777 270.391,120.313 265.234 C 120.848 260.078,121.545 255.508,121.861 255.078 C 122.177 254.648,122.878 249.902,123.418 244.531 C 123.957 239.160,124.660 234.414,124.980 233.984 C 125.300 233.555,126.003 228.809,126.543 223.438 C 127.082 218.066,127.794 213.320,128.125 212.891 C 128.456 212.461,129.168 207.715,129.707 202.344 C 130.247 196.973,130.950 192.227,131.270 191.797 C 131.590 191.367,132.297 186.697,132.841 181.418 C 133.385 176.140,134.129 171.636,134.494 171.411 C 134.858 171.186,135.156 169.382,135.156 167.402 C 135.156 160.941,135.831 164.279,136.696 175.021 C 137.163 180.810,137.912 187.610,138.361 190.132 C 138.810 192.654,139.678 199.686,140.290 205.757 C 140.901 211.829,142.123 223.125,143.006 230.859 C 143.888 238.594,145.132 250.547,145.769 257.422 C 146.407 264.297,147.245 270.977,147.631 272.266 C 148.018 273.555,148.736 280.059,149.229 286.719 C 149.721 293.379,150.425 299.531,150.794 300.391 C 151.162 301.250,151.866 307.402,152.358 314.063 C 152.850 320.723,153.538 326.875,153.887 327.734 C 154.235 328.594,154.854 332.737,155.262 336.941 C 156.220 346.814,158.897 350.000,166.235 350.000 C 174.968 350.000,177.429 345.731,178.844 328.125 C 179.311 322.324,180.059 315.820,180.508 313.672 C 180.957 311.523,181.834 304.492,182.456 298.047 C 183.078 291.602,184.307 280.000,185.186 272.266 C 186.066 264.531,187.330 252.402,187.997 245.313 C 188.664 238.223,189.423 231.895,189.683 231.250 C 189.943 230.605,190.787 224.102,191.557 216.797 C 192.328 209.492,193.678 197.188,194.559 189.453 C 195.439 181.719,196.698 169.590,197.355 162.500 C 198.013 155.410,198.831 149.072,199.174 148.415 C 199.517 147.759,200.281 141.079,200.873 133.572 L 201.948 119.922 202.769 128.125 C 203.221 132.637,203.813 136.855,204.085 137.500 C 204.358 138.145,204.978 144.121,205.464 150.781 C 205.950 157.441,206.646 163.594,207.010 164.453 C 207.375 165.313,208.217 171.816,208.882 178.906 C 209.546 185.996,210.810 198.125,211.689 205.859 C 212.569 213.594,213.809 225.371,214.445 232.031 C 215.081 238.691,215.943 245.371,216.361 246.875 C 216.778 248.379,217.503 254.707,217.971 260.938 C 218.439 267.168,219.128 273.320,219.503 274.609 C 219.877 275.898,220.585 282.051,221.076 288.281 C 221.567 294.512,222.284 300.840,222.670 302.344 C 223.056 303.848,223.750 309.936,224.212 315.873 C 224.674 321.811,225.386 328.315,225.794 330.326 C 226.202 332.338,226.745 336.357,227.002 339.258 C 227.258 342.158,227.768 344.531,228.135 344.531 C 228.501 344.531,229.000 345.146,229.242 345.898 C 230.239 348.988,242.969 352.067,242.969 349.219 C 242.969 348.789,243.501 348.438,244.152 348.438 C 245.580 348.438,248.431 343.992,248.435 341.758 C 248.436 340.877,248.743 339.822,249.116 339.414 C 249.489 339.006,250.235 332.695,250.773 325.391 C 251.311 318.086,252.010 311.758,252.325 311.328 C 252.641 310.898,253.342 304.765,253.883 297.698 C 254.424 290.631,255.152 284.303,255.501 283.635 C 255.851 282.968,256.689 276.445,257.364 269.141 C 259.351 247.640,260.707 235.080,261.581 230.078 C 262.031 227.500,262.633 222.051,262.918 217.969 C 263.204 213.887,263.770 208.789,264.177 206.641 C 264.584 204.492,265.433 197.461,266.063 191.016 C 266.694 184.570,267.530 177.363,267.923 175.000 C 268.315 172.637,268.706 168.770,268.791 166.406 C 268.914 162.965,269.204 164.131,270.245 172.266 C 270.960 177.852,271.769 182.949,272.044 183.594 C 272.318 184.238,272.963 188.984,273.477 194.141 C 273.991 199.297,274.679 203.867,275.006 204.297 C 275.333 204.727,276.043 209.473,276.582 214.844 C 277.122 220.215,277.825 224.961,278.145 225.391 C 278.465 225.820,279.168 230.566,279.707 235.938 C 280.247 241.309,280.948 246.055,281.264 246.484 C 281.580 246.914,282.277 251.484,282.813 256.641 C 283.348 261.797,284.045 266.367,284.361 266.797 C 284.677 267.227,285.383 271.963,285.929 277.322 C 286.476 282.682,287.206 287.603,287.553 288.260 C 287.900 288.916,288.564 293.128,289.028 297.619 C 289.493 302.111,290.139 305.978,290.463 306.213 C 290.787 306.448,291.649 307.581,292.380 308.730 C 293.111 309.879,294.509 311.044,295.487 311.318 C 296.465 311.592,298.024 312.188,298.950 312.642 C 301.262 313.774,307.521 311.347,309.230 308.657 C 309.935 307.548,310.744 306.465,311.030 306.250 C 311.315 306.035,311.988 303.047,312.526 299.609 C 313.064 296.172,313.759 293.008,314.070 292.578 C 314.382 292.148,315.082 288.809,315.625 285.156 C 316.168 281.504,316.872 278.164,317.188 277.734 C 317.503 277.305,318.207 273.965,318.750 270.313 C 319.293 266.660,319.997 263.320,320.313 262.891 C 320.628 262.461,321.332 259.121,321.875 255.469 C 322.418 251.816,323.122 248.477,323.438 248.047 C 323.753 247.617,324.457 244.277,325.000 240.625 C 325.543 236.973,326.249 233.633,326.567 233.203 C 326.886 232.773,327.573 229.434,328.096 225.781 C 328.618 222.129,329.324 218.789,329.664 218.359 C 330.005 217.930,330.713 214.500,331.239 210.738 C 331.764 206.976,332.481 203.720,332.832 203.503 C 333.184 203.286,333.715 200.827,334.014 198.039 C 334.506 193.447,335.938 190.802,335.938 194.485 C 335.938 195.319,336.254 196.197,336.640 196.436 C 337.027 196.675,337.776 198.717,338.305 200.974 C 338.834 203.231,339.547 205.434,339.888 205.870 C 340.230 206.305,340.938 208.415,341.461 210.557 C 341.985 212.700,342.679 214.805,343.003 215.234 C 343.328 215.664,344.060 218.037,344.631 220.508 C 345.201 222.979,345.939 225.000,346.271 225.000 C 346.603 225.000,346.875 225.706,346.875 226.570 C 346.875 227.433,347.963 229.279,349.294 230.671 L 351.712 233.203 367.401 233.471 C 392.651 233.902,395.313 233.048,395.313 224.510 C 395.313 220.662,394.987 219.554,393.328 217.765 L 391.343 215.625 376.622 215.625 C 362.003 215.625,361.898 215.613,361.474 213.867 C 360.864 211.357,358.601 204.706,357.420 201.953 C 356.867 200.664,356.161 198.379,355.852 196.875 C 355.542 195.371,355.003 193.784,354.655 193.349 C 354.307 192.914,353.594 190.804,353.070 188.661 C 352.547 186.519,351.843 184.409,351.508 183.974 C 351.172 183.539,350.469 181.429,349.945 179.286 C 349.422 177.144,348.747 175.039,348.446 174.609 C 348.145 174.180,347.438 172.070,346.875 169.922 C 346.312 167.773,345.595 165.664,345.281 165.234 C 344.968 164.805,344.469 163.320,344.173 161.935 C 341.873 151.176,324.646 152.369,322.961 163.405 C 322.676 165.270,322.170 167.148,321.837 167.578 C 321.504 168.008,320.791 171.348,320.253 175.000 C 319.716 178.652,319.013 181.992,318.692 182.422 C 318.370 182.852,317.680 186.191,317.158 189.844 C 316.636 193.496,315.933 196.836,315.596 197.266 C 315.259 197.695,314.555 201.035,314.033 204.688 C 313.511 208.340,312.808 211.680,312.471 212.109 C 312.134 212.539,311.430 215.879,310.908 219.531 C 310.386 223.184,309.683 226.523,309.346 226.953 C 309.009 227.383,308.305 230.723,307.783 234.375 C 307.261 238.027,306.558 241.367,306.221 241.797 C 305.884 242.227,305.184 245.566,304.665 249.219 C 304.147 252.871,303.413 256.193,303.033 256.602 C 302.654 257.010,302.333 258.240,302.320 259.336 C 302.261 264.275,300.891 258.308,299.998 249.219 C 299.470 243.848,298.815 239.102,298.542 238.672 C 298.270 238.242,297.432 233.408,296.680 227.930 C 293.590 205.420,292.472 197.988,292.008 196.875 C 291.740 196.230,291.099 191.484,290.585 186.328 C 290.071 181.172,289.392 176.602,289.076 176.172 C 288.760 175.742,288.054 171.006,287.508 165.646 C 286.962 160.287,286.235 155.365,285.894 154.709 C 285.552 154.053,284.713 149.121,284.029 143.750 C 283.344 138.379,282.269 129.941,281.640 125.000 C 281.010 120.059,280.153 114.785,279.735 113.281 C 279.318 111.777,278.773 109.316,278.524 107.813 C 277.690 102.754,273.970 100.000,267.969 100.000 C 260.524 100.000,257.031 103.753,257.031 111.753 C 257.031 113.281,256.726 114.865,256.353 115.273 C 255.980 115.682,255.234 121.992,254.696 129.297 C 254.157 136.602,253.455 142.930,253.135 143.359 C 252.815 143.789,252.104 150.205,251.554 157.617 C 251.005 165.029,250.315 171.094,250.021 171.094 C 249.727 171.094,249.034 177.158,248.482 184.570 C 247.929 191.982,247.215 198.398,246.895 198.828 C 246.574 199.258,245.869 205.586,245.327 212.891 C 244.785 220.195,244.084 226.523,243.768 226.953 C 243.453 227.383,242.755 233.535,242.218 240.625 C 241.680 247.715,240.967 253.867,240.633 254.297 C 240.299 254.727,239.778 259.151,239.475 264.128 C 238.881 273.901,237.533 278.581,237.512 270.945 C 237.505 268.499,237.197 266.311,236.826 266.082 C 236.455 265.853,235.695 259.504,235.136 251.973 C 234.577 244.443,233.886 238.281,233.601 238.281 C 233.316 238.281,232.623 232.217,232.062 224.805 C 231.500 217.393,230.781 210.977,230.463 210.547 C 230.146 210.117,229.445 203.965,228.906 196.875 C 228.367 189.785,227.660 183.633,227.334 183.203 C 227.008 182.773,226.289 176.357,225.737 168.945 C 225.184 161.533,224.501 155.469,224.219 155.469 C 223.936 155.469,223.253 149.404,222.701 141.992 C 222.148 134.580,221.431 128.164,221.108 127.734 C 220.784 127.305,220.099 121.328,219.585 114.453 C 219.071 107.578,218.427 101.426,218.155 100.781 C 217.882 100.137,217.044 93.633,216.292 86.328 C 215.540 79.023,214.436 68.909,213.838 63.853 L 212.751 54.659 209.696 51.939 C 205.421 48.134,199.486 48.004,195.100 51.619 " stroke="none" fill="#000000" fill-rule="evenodd"></path></g></svg>