<svg id="svg" version="1.1" xmlns="http://www.w3.org/2000/svg" xmlns:xlink="http://www.w3.org/1999/xlink" width="400" height="400" viewBox="0, 0, 400,400"><g id="svgg"><path id="path0" d="M8.949 1.918 L 7.031 3.835 7.031 154.583 L 7.031 305.330 9.435 307.352 L 11.839 309.375 67.197 309.375 C 98.044 309.375,123.372 309.064,124.401 308.673 C 125.883 308.109,230.444 170.778,236.992 160.793 C 241.936 153.255,240.702 152.282,203.516 134.409 C 186.328 126.149,172.009 119.148,171.696 118.852 C 171.383 118.556,179.205 106.195,189.078 91.383 C 208.886 61.670,209.061 61.285,204.748 56.971 L 202.464 54.688 183.596 54.688 L 164.728 54.688 124.008 27.344 L 83.287 0.000 47.077 0.000 L 10.866 0.000 8.949 1.918 M108.338 34.375 L 138.539 54.688 79.816 54.688 L 21.094 54.688 21.094 34.375 L 21.094 14.063 49.615 14.063 L 78.136 14.063 108.338 34.375 M274.447 55.701 C 272.613 56.721,232.322 116.150,231.099 119.641 C 229.129 125.260,229.464 125.487,265.443 142.908 L 298.297 158.817 282.877 179.213 C 184.405 309.465,189.763 301.781,193.989 306.695 L 195.958 308.984 292.049 309.189 L 388.140 309.393 390.554 307.362 L 392.969 305.330 392.969 182.031 L 392.969 58.733 390.565 56.710 L 388.161 54.687 332.167 54.715 C 289.435 54.736,275.763 54.970,274.447 55.701 M185.458 70.508 C 185.143 71.045,177.739 82.112,169.005 95.102 C 151.758 120.754,151.196 121.986,154.883 126.087 C 155.903 127.222,169.850 134.416,188.127 143.234 C 205.444 151.590,219.619 158.728,219.626 159.096 C 219.634 159.464,196.852 190.067,169.000 227.102 L 118.359 294.439 69.727 294.485 L 21.094 294.531 21.094 182.031 L 21.094 69.531 103.562 69.531 C 169.320 69.531,185.914 69.729,185.458 70.508 M378.906 182.031 L 378.906 294.531 296.875 294.531 C 251.758 294.531,214.844 294.350,214.844 294.128 C 214.844 293.906,237.693 263.408,265.619 226.354 C 320.517 153.515,318.779 156.142,315.039 151.659 C 314.287 150.758,299.434 143.141,282.031 134.734 C 264.629 126.326,250.098 119.156,249.741 118.801 C 249.384 118.445,256.385 107.214,265.298 93.843 L 281.503 69.531 330.205 69.531 L 378.906 69.531 378.906 182.031 M287.206 81.314 C 282.815 84.768,267.969 108.299,267.969 111.805 C 267.969 116.424,268.598 116.808,304.198 133.906 L 336.568 149.453 322.426 168.281 C 314.648 178.637,293.738 206.402,275.960 229.982 C 241.381 275.845,241.681 275.395,243.010 279.423 C 244.726 284.623,242.133 284.427,306.308 284.194 L 364.198 283.984 366.083 281.792 C 368.576 278.894,368.576 275.012,366.084 272.114 L 364.199 269.922 314.469 269.531 L 264.739 269.141 309.713 209.464 C 358.021 145.364,356.838 147.168,353.604 142.551 C 353.008 141.700,337.627 133.819,319.424 125.038 C 301.221 116.257,286.187 108.971,286.015 108.846 C 285.843 108.721,288.568 104.293,292.070 99.006 C 299.072 88.435,299.756 85.979,296.680 82.439 C 294.159 79.538,290.079 79.053,287.206 81.314 M43.690 91.346 L 41.406 93.630 41.406 181.928 L 41.406 270.225 43.164 272.248 C 45.850 275.339,49.866 275.669,52.973 273.055 L 55.469 270.955 55.469 182.031 L 55.469 93.108 53.065 91.085 C 49.809 88.345,46.601 88.435,43.690 91.346 M58.805 334.143 C 54.179 335.037,53.906 336.487,53.906 360.192 L 53.906 381.892 56.359 383.956 L 58.812 386.020 75.870 385.784 C 98.639 385.468,96.417 388.115,96.715 360.947 C 96.979 336.936,96.770 335.851,91.600 334.416 C 88.825 333.645,62.515 333.426,58.805 334.143 M179.117 334.115 C 174.482 335.085,174.216 336.497,174.244 360.066 C 174.276 388.029,172.581 385.938,195.210 385.938 C 218.654 385.938,217.361 387.560,217.029 358.548 L 216.797 338.314 214.632 336.149 L 212.468 333.984 196.664 333.868 C 187.971 333.803,180.075 333.915,179.117 334.115 M320.313 339.882 C 310.876 346.799,309.375 348.496,309.375 352.251 C 309.375 358.317,316.235 361.047,321.700 357.156 L 324.219 355.362 324.219 368.242 C 324.219 384.474,325.384 386.919,332.483 385.587 C 338.199 384.515,338.378 383.673,338.120 359.156 L 337.891 337.360 336.046 335.867 C 332.334 332.863,328.582 333.820,320.313 339.882 M82.031 360.156 L 82.031 371.875 75.000 371.875 L 67.969 371.875 67.969 360.156 L 67.969 348.438 75.000 348.438 L 82.031 348.438 82.031 360.156 M139.884 349.007 C 138.135 349.696,123.999 360.159,122.461 361.904 C 116.878 368.235,126.326 377.145,133.030 371.871 L 135.022 370.305 135.284 383.138 C 135.594 398.292,136.347 400.000,142.714 400.000 C 149.839 400.000,150.139 398.857,149.843 372.773 L 149.609 352.206 147.417 350.322 C 145.335 348.532,142.393 348.018,139.884 349.007 M202.344 360.156 L 202.344 371.875 195.313 371.875 L 188.281 371.875 188.281 360.156 L 188.281 348.438 195.313 348.438 L 202.344 348.438 202.344 360.156 M244.471 350.721 L 242.188 353.005 242.188 374.585 L 242.188 396.165 244.105 398.082 L 246.023 400.000 263.636 400.000 C 287.325 400.000,285.337 402.534,284.999 372.773 L 284.766 352.206 282.574 350.322 C 280.404 348.456,280.212 348.438,263.568 348.438 L 246.755 348.438 244.471 350.721 M270.313 374.219 L 270.313 385.938 263.281 385.938 L 256.250 385.938 256.250 374.219 L 256.250 362.500 263.281 362.500 L 270.313 362.500 270.313 374.219 " stroke="none" fill="#000000" fill-rule="evenodd"></path></g></svg>