<svg xmlns="http://www.w3.org/2000/svg" xmlns:xlink="http://www.w3.org/1999/xlink" width="6" height="8" viewBox="0 0 6 8">
  <defs>
    <clipPath id="clip-path">
      <path id="Path_5990" data-name="Path 5990" d="M1-8A1,1,0,0,0,0-7v6A1,1,0,0,0,1,0,1,1,0,0,0,2-1V-7A1,1,0,0,0,1-8M6-7v6A1,1,0,0,1,5,0,1,1,0,0,1,4-1V-7A1,1,0,0,1,5-8,1,1,0,0,1,6-7" fill="#fff" clip-rule="evenodd"/>
    </clipPath>
    <clipPath id="clip-path-2">
      <path id="Path_5989" data-name="Path 5989" d="M-187,346H233V-34H-187Z" fill="#fff"/>
    </clipPath>
  </defs>
  <g id="pausebutton" transform="translate(0 8)" clip-path="url(#clip-path)">
    <g id="Group_12212" data-name="Group 12212" clip-path="url(#clip-path-2)">
      <path id="Path_5988" data-name="Path 5988" d="M-5,5H11V-13H-5Z" fill="#fff"/>
    </g>
  </g>
</svg>
