<svg width="16" height="16" viewBox="0 0 16 16" fill="none" xmlns="http://www.w3.org/2000/svg">
<path d="M14.3848 9.25977H13.125L11.4258 10.4902H13.7402V14.2402H1.25977V10.4902H3.57422L1.875 9.25977H0.615234C0.458984 9.25977 0.317383 9.32324 0.19043 9.4502C0.0634766 9.57715 0 9.71875 0 9.875V14.2402C0 14.5918 0.12207 14.8896 0.366211 15.1338C0.610352 15.3779 0.908203 15.5 1.25977 15.5H13.7402C14.0918 15.5 14.3896 15.3779 14.6338 15.1338C14.8779 14.8896 15 14.5918 15 14.2402V9.875C15 9.71875 14.9365 9.57715 14.8096 9.4502C14.6826 9.32324 14.541 9.25977 14.3848 9.25977ZM7.5 0.5C7.08984 0.5 6.88477 0.705078 6.88477 1.11523V9.81641L4.13086 7.56055C3.99414 7.44336 3.83789 7.39453 3.66211 7.41406C3.48633 7.43359 3.34961 7.50195 3.25195 7.61914C3.13477 7.75586 3.08594 7.91211 3.10547 8.08789C3.125 8.26367 3.19336 8.40039 3.31055 8.49805L7.5 11.75L11.6309 8.49805C11.9238 8.20508 11.9434 7.91211 11.6895 7.61914C11.377 7.3457 11.084 7.32617 10.8105 7.56055L8.11523 9.81641V1.11523C8.11523 0.705078 7.91016 0.5 7.5 0.5ZM12.5098 12.3652C12.5098 12.541 12.4463 12.6924 12.3193 12.8193C12.1924 12.9463 12.041 13.0098 11.8652 13.0098C11.709 13.0098 11.5674 12.9463 11.4404 12.8193C11.3135 12.6924 11.25 12.541 11.25 12.3652C11.25 12.209 11.3135 12.0674 11.4404 11.9404C11.5674 11.8135 11.709 11.75 11.8652 11.75C12.041 11.75 12.1924 11.8135 12.3193 11.9404C12.4463 12.0674 12.5098 12.209 12.5098 12.3652ZM10.6348 12.3652C10.6348 12.541 10.5713 12.6924 10.4443 12.8193C10.3174 12.9463 10.166 13.0098 9.99023 13.0098C9.83398 13.0098 9.69238 12.9463 9.56543 12.8193C9.43848 12.6924 9.375 12.541 9.375 12.3652C9.375 12.209 9.43848 12.0674 9.56543 11.9404C9.69238 11.8135 9.83398 11.75 9.99023 11.75C10.166 11.75 10.3174 11.8135 10.4443 11.9404C10.5713 12.0674 10.6348 12.209 10.6348 12.3652Z" fill="#203C66"/>
</svg>
