<svg id="Layer_1" enable-background="new 0 0 128 128" height="512" viewBox="0 0 128 128" width="512" xmlns="http://www.w3.org/2000/svg"><path id="Calender" d="m110.633 20.606h-11.36v-7.062c0-.829-.672-1.5-1.5-1.5s-1.5.671-1.5 1.5v7.062h-19.515v-7.062c0-.829-.672-1.5-1.5-1.5s-1.5.671-1.5 1.5v7.062h-19.516v-7.062c0-.829-.672-1.5-1.5-1.5s-1.5.671-1.5 1.5v7.062h-19.516v-7.062c0-.829-.671-1.5-1.5-1.5s-1.5.671-1.5 1.5v7.062h-11.359c-2.935 0-5.323 2.388-5.323 5.323v84.704c0 2.936 2.388 5.323 5.323 5.323h93.266c2.936 0 5.323-2.388 5.323-5.323v-84.704c0-2.935-2.388-5.323-5.323-5.323zm-93.266 3h11.359v8.41c0 .829.671 1.5 1.5 1.5s1.5-.671 1.5-1.5v-8.41h19.516v8.41c0 .829.672 1.5 1.5 1.5s1.5-.671 1.5-1.5v-8.41h19.516v8.41c0 .829.672 1.5 1.5 1.5s1.5-.671 1.5-1.5v-8.41h19.516v8.41c0 .829.672 1.5 1.5 1.5s1.5-.671 1.5-1.5v-8.41h11.359c1.281 0 2.323 1.042 2.323 2.323v15.171h-97.912v-15.171c0-1.281 1.042-2.323 2.323-2.323zm93.266 89.35h-93.266c-1.281 0-2.323-1.042-2.323-2.323v-66.533h97.912v66.533c0 1.281-1.042 2.323-2.323 2.323zm-32.406-60.61h-7.788c-2.005 0-3.636 1.631-3.636 3.636v7.788c0 2.005 1.631 3.636 3.636 3.636h7.788c2.005 0 3.636-1.631 3.636-3.636v-7.788c-.001-2.005-1.632-3.636-3.636-3.636zm.635 11.424c0 .351-.285.636-.636.636h-7.788c-.351 0-.636-.285-.636-.636v-7.788c0-.351.285-.636.636-.636h7.788c.351 0 .636.285.636.636zm20.03-11.424h-7.788c-2.005 0-3.637 1.631-3.637 3.636v7.788c0 2.005 1.632 3.636 3.637 3.636h7.788c2.005 0 3.636-1.631 3.636-3.636v-7.788c-.001-2.005-1.632-3.636-3.636-3.636zm.635 11.424c0 .351-.285.636-.636.636h-7.788c-.352 0-.637-.285-.637-.636v-7.788c0-.351.285-.636.637-.636h7.788c.351 0 .636.285.636.636zm-21.3 6.918h-7.788c-2.005 0-3.636 1.631-3.636 3.636v7.789c0 2.005 1.631 3.636 3.636 3.636h7.788c2.005 0 3.636-1.631 3.636-3.636v-7.789c-.001-2.005-1.632-3.636-3.636-3.636zm.635 11.425c0 .351-.285.636-.636.636h-7.788c-.351 0-.636-.285-.636-.636v-7.789c0-.351.285-.636.636-.636h7.788c.351 0 .636.285.636.636zm20.03-11.425h-7.788c-2.005 0-3.637 1.631-3.637 3.636v7.789c0 2.005 1.632 3.636 3.637 3.636h7.788c2.005 0 3.636-1.631 3.636-3.636v-7.789c-.001-2.005-1.632-3.636-3.636-3.636zm.635 11.425c0 .351-.285.636-.636.636h-7.788c-.352 0-.637-.285-.637-.636v-7.789c0-.351.285-.636.637-.636h7.788c.351 0 .636.285.636.636zm-62.63-11.425h-7.789c-2.005 0-3.636 1.631-3.636 3.636v7.789c0 2.005 1.631 3.636 3.636 3.636h7.789c2.005 0 3.636-1.631 3.636-3.636v-7.789c0-2.005-1.631-3.636-3.636-3.636zm.636 11.425c0 .351-.285.636-.636.636h-7.789c-.351 0-.636-.285-.636-.636v-7.789c0-.351.285-.636.636-.636h7.789c.351 0 .636.285.636.636zm20.029-11.425h-7.788c-2.005 0-3.636 1.631-3.636 3.636v7.789c0 2.005 1.631 3.636 3.636 3.636h7.788c2.005 0 3.636-1.631 3.636-3.636v-7.789c-.001-2.005-1.632-3.636-3.636-3.636zm.635 11.425c0 .351-.285.636-.636.636h-7.788c-.351 0-.637-.285-.637-.636v-7.789c0-.351.286-.636.637-.636h7.788c.351 0 .636.285.636.636zm-21.3 6.919h-7.789c-2.005 0-3.636 1.631-3.636 3.636v7.788c0 2.005 1.631 3.636 3.636 3.636h7.789c2.005 0 3.636-1.631 3.636-3.636v-7.788c0-2.005-1.631-3.636-3.636-3.636zm.636 11.424c0 .351-.285.636-.636.636h-7.789c-.351 0-.636-.285-.636-.636v-7.788c0-.351.285-.636.636-.636h7.789c.351 0 .636.285.636.636zm20.029-11.424h-7.788c-2.005 0-3.636 1.631-3.636 3.636v7.788c0 2.005 1.631 3.636 3.636 3.636h7.788c2.005 0 3.636-1.631 3.636-3.636v-7.788c-.001-2.005-1.632-3.636-3.636-3.636zm.635 11.424c0 .351-.285.636-.636.636h-7.788c-.351 0-.637-.285-.637-.636v-7.788c0-.351.286-.636.637-.636h7.788c.351 0 .636.285.636.636z"/></svg>