<svg xmlns="http://www.w3.org/2000/svg" xmlns:xlink="http://www.w3.org/1999/xlink" width="15" height="15" viewBox="0 0 15 15">
  <defs>
    <clipPath id="clip-path">
      <path id="Path_6037" data-name="Path 6037" d="M13.5-17.75a.75.75,0,0,0-.75-.75H2.253a.75.75,0,0,0-.75.75v10.5a.75.75,0,0,0,.75.75h10.5a.75.75,0,0,0,.75-.75ZM15-18.5v12A1.5,1.5,0,0,1,13.5-5H1.5A1.5,1.5,0,0,1,0-6.5v-12A1.5,1.5,0,0,1,1.5-20h12A1.5,1.5,0,0,1,15-18.5Zm-4.484,3.761a.749.749,0,0,1,0,1.061L7.6-10.763a1.127,1.127,0,0,1-1.593,0L4.684-12.088a.751.751,0,0,1,0-1.061.751.751,0,0,1,1.061,0l.53.53a.753.753,0,0,0,1.064,0l2.12-2.12a.749.749,0,0,1,1.061,0Z" transform="translate(0)" fill="#56b6ca" clip-rule="evenodd"/>
    </clipPath>
    <clipPath id="clip-path-2">
      <path id="Path_6036" data-name="Path 6036" d="M-140,275H175V-280H-140Z" transform="translate(140 280)" fill="#56b6ca"/>
    </clipPath>
  </defs>
  <g id="selected_checkbox" transform="translate(-177.003 -262)">
    <rect id="Rectangle_10152" data-name="Rectangle 10152" width="13" height="13" transform="translate(178 263)" fill="#fff"/>
    <g id="Group_12297" data-name="Group 12297" transform="translate(177 282)" clip-path="url(#clip-path)">
      <g id="Group_12296" data-name="Group 12296" transform="translate(-104.999 -215)" clip-path="url(#clip-path-2)">
        <path id="Path_6035" data-name="Path 6035" d="M-5-2.5H17.5V-25H-5Z" transform="translate(106.249 216.25)" fill="#56b6ca"/>
      </g>
    </g>
  </g>
</svg>
